HIERARCHY
ROOT root
{
	OFFSET 0.000000 0.000000 0.000000
	CHANNELS 6 Xposition Yposition Zposition Zrotation Yrotation Xrotation
	JOINT lhip
	{
		OFFSET 0.058581 -0.082280 -0.017664
		CHANNELS 3 Zrotation Yrotation Xrotation
		JOINT lknee
		{
			OFFSET 0.043451 -0.386469 0.008037
			CHANNELS 3 Zrotation Yrotation Xrotation
			JOINT lankle
			{
				OFFSET -0.014790 -0.426874 -0.037428
				CHANNELS 3 Zrotation Yrotation Xrotation
				JOINT ltoe
				{
					OFFSET 0.041054 -0.060286 0.122042
					CHANNELS 3 Zrotation Yrotation Xrotation
					End Site
					{
						OFFSET 0.000000 0.000000 0.000000
					}
				}
			}
		}
	}
	JOINT rhip
	{
		OFFSET -0.060310 -0.090513 -0.013543
		CHANNELS 3 Zrotation Yrotation Xrotation
		JOINT rknee
		{
			OFFSET -0.043257 -0.383688 -0.004843
			CHANNELS 3 Zrotation Yrotation Xrotation
			JOINT rankle
			{
				OFFSET 0.019056 -0.420046 -0.034562
				CHANNELS 3 Zrotation Yrotation Xrotation
				JOINT rtoe
				{
					OFFSET -0.034840 -0.062106 0.130323
					CHANNELS 3 Zrotation Yrotation Xrotation
					End Site
					{
						OFFSET 0.000000 0.000000 0.000000
					}
				}
			}
		}
	}
	JOINT lowerback
	{
		OFFSET 0.004439 0.124404 -0.038385
		CHANNELS 3 Zrotation Yrotation Xrotation
		JOINT upperback
		{
			OFFSET 0.004488 0.137956 0.026820
			CHANNELS 3 Zrotation Yrotation Xrotation
			JOINT chest
			{
				OFFSET -0.002265 0.056032 0.002855
				CHANNELS 3 Zrotation Yrotation Xrotation
				JOINT lowerneck
				{
					OFFSET -0.013390 0.211636 -0.033468
					CHANNELS 3 Zrotation Yrotation Xrotation
					JOINT upperneck
					{
						OFFSET 0.010113 0.088937 0.050410
						CHANNELS 3 Zrotation Yrotation Xrotation
						End Site
						{
							OFFSET 0.000000 0.000000 0.000000
						}
					}
				}
				JOINT lclavicle
				{
					OFFSET 0.071702 0.114000 -0.018898
					CHANNELS 3 Zrotation Yrotation Xrotation
					JOINT lshoulder
					{
						OFFSET 0.122921 0.045205 -0.019046
						CHANNELS 3 Zrotation Yrotation Xrotation
						JOINT lelbow
						{
							OFFSET 0.255332 -0.015649 -0.022946
							CHANNELS 3 Zrotation Yrotation Xrotation
							JOINT lwrist
							{
								OFFSET 0.265709 0.012698 -0.007375
								CHANNELS 3 Zrotation Yrotation Xrotation
								End Site
								{
									OFFSET 0.000000 0.000000 0.000000
								}
							}
						}
					}
				}
				JOINT rclavicle
				{
					OFFSET -0.082954 0.112472 -0.023707
					CHANNELS 3 Zrotation Yrotation Xrotation
					JOINT rshoulder
					{
						OFFSET -0.113228 0.046853 -0.008472
						CHANNELS 3 Zrotation Yrotation Xrotation
						JOINT relbow
						{
							OFFSET -0.260127 -0.014369 -0.031269
							CHANNELS 3 Zrotation Yrotation Xrotation
							JOINT rwrist
							{
								OFFSET -0.269108 0.006794 -0.006027
								CHANNELS 3 Zrotation Yrotation Xrotation
								End Site
								{
									OFFSET 0.000000 0.000000 0.000000
								}
							}
						}
					}
				}
			}
		}
	}
}
MOTION
Frames: 13
Frame Time: 0.033333
0.270390 0.822005 0.992914 88.246824 4.810339 87.704574 5.701142 1.477584 0.783292 -4.219912 -12.815401 -0.837321 4.934333 11.613585 -14.686458 0.000000 -0.000000 0.000000 0.439860 1.200250 -13.510709 1.882464 2.097948 30.149701 5.862208 -6.704190 -17.289620 0.000000 -0.000000 0.000000 -5.295484 -0.515273 12.805839 1.713664 -3.803793 10.125284 0.019848 -2.524000 6.695550 6.631460 7.586165 25.023691 6.318153 3.163539 16.274773 -23.171261 0.304839 4.125482 -43.472193 -12.343483 7.408173 12.694096 -50.650901 -0.825664 3.952758 -3.824129 -11.298650 20.725325 -5.865084 5.039008 50.395484 -3.873501 12.186066 -14.077941 53.425984 6.297671 13.146976 3.727117 -11.045780 
0.271898 0.816736 0.993915 88.509692 4.447483 86.648224 5.568699 1.159989 2.144237 -3.987565 -12.796466 -0.936932 4.438343 11.361695 -14.933006 0.000000 -0.000000 0.000000 0.369680 0.817175 -12.821663 1.700279 0.715498 28.539828 6.061389 -6.625116 -16.820857 0.000000 -0.000000 0.000000 -5.045798 -0.690425 12.585157 1.591433 -3.841296 10.765697 -0.052528 -2.538233 7.349553 6.853809 7.779121 24.163334 6.926014 2.865501 15.853054 -23.359285 0.149248 2.647651 -45.421723 -13.838683 8.981925 14.612133 -52.925995 -3.125894 5.283789 -4.112682 -12.703535 21.282749 -5.583671 3.676926 49.777234 -3.048891 13.104691 -13.945959 53.696545 5.894515 12.854082 3.319211 -10.262554 
0.273855 0.810520 0.993900 88.672422 4.058184 85.892501 5.606256 0.830653 2.946190 -4.123656 -12.705387 -0.505332 4.469572 11.408310 -15.264569 0.000000 -0.000000 0.000000 0.411854 0.515888 -11.970367 2.021051 0.832171 28.722003 6.286848 -5.806059 -14.944762 0.000000 -0.000000 0.000000 -4.870734 -0.620733 12.118489 1.677862 -3.666083 10.759989 0.049390 -2.516790 7.069641 6.538259 7.328490 24.835072 6.485960 2.979382 17.359217 -23.625561 0.156396 2.994404 -47.732524 -14.517995 9.770808 16.135362 -54.578742 -4.537801 6.473322 -4.052869 -14.692835 21.261891 -5.029915 3.996777 49.881516 -1.650839 13.244678 -13.808059 53.564893 5.973814 11.775453 3.622955 -9.678235 
0.276593 0.803624 0.993342 88.730845 3.484135 85.316449 5.554670 0.486396 3.480704 -4.405617 -12.281077 0.143185 4.541891 11.213332 -15.681610 0.000000 -0.000000 0.000000 0.231078 -0.075152 -10.033825 2.375519 1.406330 27.340314 6.698084 -4.253273 -10.669094 0.000000 -0.000000 0.000000 -4.646072 -0.288434 11.107019 1.603079 -3.555397 11.263703 -0.045286 -2.260230 7.030609 6.390373 7.048591 24.944284 6.716328 3.283290 17.468842 -24.146641 0.506465 2.818253 -49.516315 -14.439777 10.646854 17.084573 -55.958386 -4.751265 6.557172 -3.867164 -15.413122 21.810925 -4.561999 3.656880 50.061046 0.250274 13.455915 -13.901688 53.295366 5.707334 11.542929 3.440206 -9.170145 
0.279284 0.795552 0.992069 88.648885 2.867069 85.041669 5.583705 0.391737 3.750906 -4.679419 -11.754839 0.629505 4.519496 10.907223 -16.194448 0.000000 -0.000000 0.000000 -0.066191 -0.647789 -7.404982 2.755767 2.402934 23.764405 5.597928 -3.136698 -10.831848 0.000000 -0.000000 0.000000 -4.411772 0.299591 9.857649 1.624989 -3.286765 11.591508 -0.126993 -1.897965 7.051658 6.801099 7.196625 25.203810 5.798018 3.563580 18.389944 -24.707033 1.465726 2.585572 -50.851691 -13.957039 11.256759 15.835664 -56.427231 -2.384004 6.247269 -3.488437 -15.396840 22.485422 -3.990274 3.567660 50.369630 2.457076 13.682854 -14.660502 53.014025 4.899821 10.451541 3.159203 -8.735989 
0.280650 0.786852 0.991327 88.378192 2.336237 84.787689 5.721084 0.777478 3.712178 -4.887678 -11.299751 1.501051 4.251140 10.495737 -16.808925 0.000000 -0.000000 0.000000 -0.534671 -1.778074 -4.740592 3.478220 2.704571 19.417268 4.988788 -2.505085 -11.770993 0.000000 -0.000000 0.000000 -3.907156 1.175726 9.292374 1.518020 -2.916011 11.677136 -0.133849 -1.446894 6.589047 7.076176 7.240888 25.223660 5.539401 3.652035 18.266408 -25.391682 2.074999 2.717353 -51.432695 -12.448774 11.309002 14.265826 -56.076702 0.354681 5.673915 -3.371953 -14.518940 23.350801 -2.982977 3.571869 50.637611 4.747886 13.298372 -15.021808 52.410806 4.297294 9.779606 3.001546 -8.378095 
0.280143 0.777152 0.992048 87.557010 2.173928 84.802711 6.097823 0.963876 3.216248 -4.703068 -10.522812 2.708065 3.706984 10.366026 -17.095836 0.000000 -0.000000 0.000000 -0.446913 -2.584906 -2.590760 4.135575 2.757102 15.228879 3.976071 -1.587979 -11.546281 0.000000 -0.000000 0.000000 -2.844291 2.235919 8.760816 1.526277 -2.037461 12.016860 -0.377708 -0.769510 6.420696 7.644899 7.237756 24.613031 5.165183 3.045345 19.041558 -26.054792 2.344933 2.614854 -51.599564 -10.727890 11.395436 13.327508 -54.991206 2.276698 4.529607 -3.229553 -12.722162 24.451822 -1.629043 3.579658 50.691582 7.301500 12.921069 -16.227408 51.786140 2.718388 9.030061 3.139620 -8.129550 
0.277679 0.767887 0.993356 86.590381 1.983219 84.642796 6.151255 1.191974 2.412272 -4.156861 -9.968156 4.619197 3.380588 10.631409 -17.252713 0.000000 -0.000000 0.000000 -0.467926 -2.960037 -0.887880 4.819983 2.922660 11.908481 3.558097 -0.671373 -10.774662 0.000000 -0.000000 0.000000 -1.672827 3.153942 9.414049 1.347536 -1.007273 12.056214 -0.412804 0.116040 5.664119 7.427357 6.986913 24.471327 4.707299 3.235386 18.598214 -26.598748 2.523384 2.917300 -51.484225 -8.791044 10.789737 12.486400 -53.739075 3.552874 3.489645 -2.539099 -11.853787 24.459866 0.415300 4.408443 51.063398 9.679535 12.156696 -17.557834 51.195727 0.786976 8.005635 2.847250 -8.174154 
0.272174 0.759684 0.994388 85.997320 1.635246 84.922847 5.981598 0.616465 0.042673 -4.018126 -9.197866 8.338826 2.773965 10.972366 -17.829938 0.000000 -0.000000 0.000000 -0.645406 -2.759172 -0.560303 5.418402 3.019925 9.996595 3.725106 -0.131663 -9.704640 0.000000 -0.000000 0.000000 -0.421120 3.871906 10.813356 1.002140 0.048669 11.108152 -0.826498 0.972126 5.640771 7.680841 6.728471 23.103719 4.785188 2.212077 19.051771 -26.584757 2.978579 2.268392 -51.055599 -7.284260 10.536049 11.397858 -52.884644 4.719116 1.440750 -2.301268 -10.918424 24.401272 1.606907 3.813870 50.987225 11.580038 12.098979 -18.195963 51.476416 -0.175427 8.242236 2.472440 -8.061213 
0.265982 0.753071 0.994068 86.222205 1.007244 85.377195 5.593943 -0.585655 -3.440822 -4.465363 -8.683120 14.037851 2.745881 10.866665 -18.915710 0.000000 -0.000000 0.000000 -0.799366 -2.785293 -0.842948 5.651293 3.115670 8.898443 3.248506 -0.512590 -9.232802 0.000000 -0.000000 0.000000 0.742752 4.625971 12.587455 0.593201 0.721412 9.788746 -1.211151 1.449755 5.407165 7.217037 6.247968 22.030145 4.969348 2.116307 18.395375 -26.411263 2.960579 2.186503 -49.896449 -6.323214 10.007586 9.809391 -52.814915 6.381633 0.539501 -2.474153 -10.409813 23.687953 2.514216 3.924748 50.435787 12.371690 11.695101 -19.007483 52.963631 -1.148330 7.528955 2.424776 -7.957716 
0.260576 0.747327 0.993025 86.681142 0.139522 86.117647 5.206214 -1.531236 -6.742054 -5.332574 -7.818009 20.599227 2.913654 10.839784 -20.791752 0.000000 -0.000000 0.000000 -1.014213 -2.999821 -1.877301 5.477115 3.202674 8.625389 2.801985 -0.997641 -9.056225 0.000000 -0.000000 0.000000 1.558212 5.449257 13.735849 0.333613 1.311718 8.984367 -1.753731 1.746986 5.222189 6.953864 5.560467 20.653178 5.203449 1.566358 18.365491 -26.207472 2.361283 1.993901 -48.438584 -6.263785 9.659290 8.719166 -53.128261 7.137489 -0.157504 -3.038422 -9.545969 23.138846 2.705722 3.775261 49.531197 12.150338 11.091096 -20.298100 54.576492 -2.588289 8.366680 2.950613 -8.217262 
0.254898 0.742127 0.993038 87.080259 -0.597047 87.021009 5.284616 -2.135126 -8.784390 -5.973531 -6.250884 26.857277 2.586637 11.183086 -21.803448 0.000000 -0.000000 0.000000 -1.016165 -2.848991 -3.369193 5.076315 3.120059 8.744531 2.477917 -1.532925 -8.904130 0.000000 -0.000000 0.000000 2.076955 5.854450 14.685845 0.103941 1.739916 8.409419 -2.179778 1.697281 4.952414 6.265071 5.192631 19.917277 5.281847 1.442220 17.870984 -26.125657 1.493301 1.868461 -47.433966 -7.077186 9.316007 9.036501 -53.336024 6.380282 0.739386 -2.926789 -8.988431 22.873723 2.635680 3.721320 48.592587 11.953485 10.352445 -20.776238 54.291984 -3.644864 7.955553 2.727508 -8.818029 
0.250824 0.736706 0.994004 87.544650 -1.292426 87.992042 5.509660 -2.066193 -8.671444 -6.091030 -5.480519 31.376711 2.696377 11.970610 -22.583187 0.000000 -0.000000 0.000000 -0.962298 -2.748888 -4.758644 4.617700 3.274212 8.824389 2.265124 -2.055826 -8.808290 0.000000 -0.000000 0.000000 1.811332 5.617387 15.152835 -0.103897 1.684768 7.907354 -2.410914 1.607832 5.186798 6.125023 5.618476 18.599147 6.060442 1.161911 17.918001 -25.792385 0.921992 1.119135 -46.841322 -8.570004 9.360356 9.218421 -53.588795 6.342306 1.556526 -3.063122 -8.613443 23.062469 2.359355 3.167066 47.927171 11.426922 9.980354 -20.945360 52.651492 -3.854149 7.806144 2.141403 -7.646073 
